<svg width="44" height="44" viewBox="0 0 44 44" fill="none" xmlns="http://www.w3.org/2000/svg">
<path d="M44 22C44 28.0751 41.5376 33.5751 37.5564 37.5564C33.5751 41.5376 28.0751 44 22 44C15.9249 44 10.4249 41.5376 6.44365 37.5564C2.46243 33.5751 0 28.0751 0 22C0 15.9249 2.46243 10.4249 6.44365 6.44365C10.4249 2.46243 15.9249 0 22 0C28.0751 0 33.5751 2.46243 37.5564 6.44365C41.5376 10.4249 44 15.9249 44 22Z" fill="white"/>
<path d="M43.5 22C43.5 27.9372 41.0941 33.3115 37.2028 37.2028C33.3115 41.0941 27.9372 43.5 22 43.5C16.0628 43.5 10.6885 41.0941 6.7972 37.2028C2.90592 33.3115 0.5 27.9372 0.5 22C0.5 16.0628 2.90592 10.6885 6.7972 6.7972C10.6885 2.90592 16.0628 0.5 22 0.5C27.9372 0.5 33.3115 2.90592 37.2028 6.7972C41.0941 10.6885 43.5 16.0628 43.5 22Z" stroke="white" stroke-opacity="0.3"/>
<path d="M25 25C26.6569 25 28 23.6569 28 22C28 20.3431 26.6569 19 25 19C23.3431 19 22 20.3431 22 22C22 23.6569 23.3431 25 25 25Z" stroke="black" stroke-width="2" stroke-linecap="round" stroke-linejoin="round"/>
<path d="M25 13H19C17.3431 13 16 14.3431 16 16C16 17.6569 17.3431 19 19 19H25C26.6569 19 28 17.6569 28 16C28 14.3431 26.6569 13 25 13Z" stroke="black" stroke-width="2" stroke-linecap="round" stroke-linejoin="round"/>
<path d="M19 25C18.2044 25 17.4413 24.6839 16.8787 24.1213C16.3161 23.5587 16 22.7956 16 22C16 21.2044 16.3161 20.4413 16.8787 19.8787C17.4413 19.3161 18.2044 19 19 19H22V25H19ZM19 25C18.4067 25 17.8266 25.1759 17.3333 25.5056C16.8399 25.8352 16.4554 26.3038 16.2284 26.8519C16.0013 27.4001 15.9419 28.0033 16.0576 28.5853C16.1734 29.1672 16.4591 29.7018 16.8787 30.1213C17.2982 30.5409 17.8328 30.8266 18.4147 30.9424C18.9967 31.0581 19.5999 30.9987 20.1481 30.7716C20.6962 30.5446 21.1648 30.1601 21.4944 29.6667C21.8241 29.1734 22 28.5933 22 28V13" stroke="black" stroke-width="2" stroke-linecap="round" stroke-linejoin="round"/>
</svg>

