<svg width="44" height="44" viewBox="0 0 44 44" fill="none" xmlns="http://www.w3.org/2000/svg">
<path d="M44 22C44 28.0751 41.5376 33.5751 37.5564 37.5564C33.5751 41.5376 28.0751 44 22 44C15.9249 44 10.4249 41.5376 6.44365 37.5564C2.46243 33.5751 0 28.0751 0 22C0 15.9249 2.46243 10.4249 6.44365 6.44365C10.4249 2.46243 15.9249 0 22 0C28.0751 0 33.5751 2.46243 37.5564 6.44365C41.5376 10.4249 44 15.9249 44 22Z" fill="white"/>
<path d="M43.5 22C43.5 27.9372 41.0941 33.3115 37.2028 37.2028C33.3115 41.0941 27.9372 43.5 22 43.5C16.0628 43.5 10.6885 41.0941 6.7972 37.2028C2.90592 33.3115 0.5 27.9372 0.5 22C0.5 16.0628 2.90592 10.6885 6.7972 6.7972C10.6885 2.90592 16.0628 0.5 22 0.5C27.9372 0.5 33.3115 2.90592 37.2028 6.7972C41.0941 10.6885 43.5 16.0628 43.5 22Z" stroke="white" stroke-opacity="0.3"/>
<path d="M25.5 30.9614V27.4614C25.5 26.4614 25.6 26.0614 25 25.4614C27.8 25.1614 30.5 24.0614 30.5 19.4614C30.4988 18.2663 30.0325 17.1187 29.2 16.2614C29.5905 15.2233 29.5545 14.073 29.1 13.0614C29.1 13.0614 28 12.7614 25.6 14.3614C23.5672 13.832 21.4328 13.832 19.4 14.3614C17 12.7614 15.9 13.0614 15.9 13.0614C15.4455 14.073 15.4095 15.2233 15.8 16.2614C14.9675 17.1187 14.5012 18.2663 14.5 19.4614C14.5 24.0614 17.2 25.1614 20 25.4614C19.4 26.0614 19.4 26.6614 19.5 27.4614V30.9614M19.5 28.9614C15.2 30.3614 15.2 26.4614 13.5 25.9614L19.5 28.9614Z" stroke="black" stroke-width="2" stroke-linecap="round" stroke-linejoin="round"/>
</svg>

