<svg width="44" height="44" viewBox="0 0 44 44" fill="none" xmlns="http://www.w3.org/2000/svg">
<path d="M44 22C44 28.0751 41.5376 33.5751 37.5564 37.5564C33.5751 41.5376 28.0751 44 22 44C15.9249 44 10.4249 41.5376 6.44365 37.5564C2.46243 33.5751 0 28.0751 0 22C0 15.9249 2.46243 10.4249 6.44365 6.44365C10.4249 2.46243 15.9249 0 22 0C28.0751 0 33.5751 2.46243 37.5564 6.44365C41.5376 10.4249 44 15.9249 44 22Z" fill="white"/>
<path d="M43.5 22C43.5 27.9372 41.0941 33.3115 37.2028 37.2028C33.3115 41.0941 27.9372 43.5 22 43.5C16.0628 43.5 10.6885 41.0941 6.7972 37.2028C2.90592 33.3115 0.5 27.9372 0.5 22C0.5 16.0628 2.90592 10.6885 6.7972 6.7972C10.6885 2.90592 16.0628 0.5 22 0.5C27.9372 0.5 33.3115 2.90592 37.2028 6.7972C41.0941 10.6885 43.5 16.0628 43.5 22Z" stroke="white" stroke-opacity="0.3"/>
<path d="M22.1997 26.0684C19.6657 26.0684 17.4002 25.1329 16.1997 23.7999C16.6657 25.0004 17.4682 26.0684 18.5332 26.7999C19.6012 27.5344 20.8667 27.9324 22.1997 27.9324C23.5327 27.9324 24.8017 27.5344 25.8662 26.7999C26.9342 26.0684 27.7337 25.0004 28.1997 23.7999C26.9992 25.1334 24.7337 26.0684 22.1997 26.0684ZM22.1997 17.2659C24.7337 17.2659 26.9992 18.2014 28.1997 19.5344C27.7337 18.3339 26.9342 17.2659 25.8662 16.5344C24.7337 15.7349 23.4682 15.3339 22.1997 15.3339C20.8662 15.3339 19.6012 15.7354 18.5332 16.4664C17.4687 17.2659 16.6657 18.2659 16.1997 19.5344C17.4002 18.1329 19.6012 17.2659 22.1997 17.2659ZM26.8667 14.0684C25.6222 14.0684 25.6222 15.9324 26.8667 15.9324C28.1112 15.9324 28.1112 14.0684 26.8667 14.0684ZM17.4687 27.5344C17.1507 27.5344 16.8457 27.6607 16.6208 27.8855C16.396 28.1104 16.2697 28.4154 16.2697 28.7334C16.2697 29.0514 16.396 29.3563 16.6208 29.5812C16.8457 29.806 17.1507 29.9324 17.4687 29.9324C17.7863 29.9324 18.0908 29.8062 18.3154 29.5816C18.54 29.357 18.6662 29.0525 18.6662 28.7349C18.6665 28.5774 18.6358 28.4214 18.5757 28.2758C18.5157 28.1301 18.4276 27.9978 18.3163 27.8863C18.2051 27.7748 18.073 27.6863 17.9275 27.6259C17.7821 27.5655 17.6261 27.5344 17.4687 27.5344ZM16.4687 15.5344C15.5782 15.5344 15.5782 16.8679 16.4687 16.8679C17.3567 16.8679 17.3567 15.5344 16.4687 15.5344Z" fill="#FFF000"/>
</svg>
