<svg width="127" height="41" viewBox="0 0 127 41" fill="none" xmlns="http://www.w3.org/2000/svg">
<path d="M21.4088 12.18C20.7502 11.348 19.8488 10.7413 18.7048 10.36C17.5955 9.944 16.5382 9.736 15.5328 9.736C14.9435 9.736 14.3368 9.80533 13.7128 9.944C13.0888 10.0827 12.4995 10.308 11.9448 10.62C11.3902 10.8973 10.9395 11.2787 10.5928 11.764C10.2462 12.2493 10.0728 12.8387 10.0728 13.532C10.0728 14.6413 10.4888 15.4907 11.3208 16.08C12.1528 16.6693 13.1928 17.172 14.4408 17.588C15.7235 18.004 17.0928 18.42 18.5488 18.836C20.0048 19.252 21.3568 19.8413 22.6048 20.604C23.8875 21.3667 24.9448 22.3893 25.7768 23.672C26.6088 24.9547 27.0248 26.6707 27.0248 28.82C27.0248 30.8653 26.6435 32.6507 25.8808 34.176C25.1182 35.7013 24.0782 36.9667 22.7608 37.972C21.4782 38.9773 19.9702 39.7227 18.2368 40.208C16.5382 40.6933 14.7355 40.936 12.8288 40.936C10.4368 40.936 8.21818 40.572 6.17284 39.844C4.12751 39.116 2.22084 37.9373 0.452844 36.308L6.22484 29.964C7.05684 31.0733 8.09684 31.94 9.34484 32.564C10.6275 33.1533 11.9448 33.448 13.2968 33.448C13.9555 33.448 14.6142 33.3787 15.2728 33.24C15.9662 33.0667 16.5728 32.824 17.0928 32.512C17.6475 32.2 18.0808 31.8013 18.3928 31.316C18.7395 30.8307 18.9128 30.2587 18.9128 29.6C18.9128 28.4907 18.4795 27.624 17.6128 27C16.7808 26.3413 15.7235 25.7867 14.4408 25.336C13.1582 24.8853 11.7715 24.4347 10.2808 23.984C8.79018 23.5333 7.40351 22.9267 6.12084 22.164C4.83818 21.4013 3.76351 20.396 2.89684 19.148C2.06484 17.9 1.64884 16.2533 1.64884 14.208C1.64884 12.232 2.03018 10.4987 2.79284 9.008C3.59018 7.51733 4.63018 6.26933 5.91284 5.264C7.23018 4.25867 8.73818 3.51333 10.4368 3.028C12.1355 2.508 13.8862 2.248 15.6888 2.248C17.7688 2.248 19.7795 2.54267 21.7208 3.132C23.6622 3.72133 25.4128 4.70933 26.9728 6.096L21.4088 12.18ZM47.9402 36.828H47.8362C46.9696 38.18 45.8082 39.1507 44.3522 39.74C42.9309 40.3293 41.4229 40.624 39.8282 40.624C38.6496 40.624 37.5056 40.4507 36.3962 40.104C35.3216 39.792 34.3682 39.3067 33.5362 38.648C32.7042 37.9893 32.0456 37.1747 31.5602 36.204C31.0749 35.2333 30.8322 34.1067 30.8322 32.824C30.8322 31.368 31.0922 30.1373 31.6122 29.132C32.1669 28.1267 32.8949 27.2947 33.7962 26.636C34.7322 25.9773 35.7896 25.4747 36.9682 25.128C38.1469 24.7467 39.3602 24.4693 40.6082 24.296C41.8909 24.1227 43.1562 24.0187 44.4042 23.984C45.6869 23.9493 46.8656 23.932 47.9402 23.932C47.9402 22.5453 47.4376 21.4533 46.4322 20.656C45.4616 19.824 44.3002 19.408 42.9482 19.408C41.6656 19.408 40.4869 19.6853 39.4122 20.24C38.3722 20.76 37.4362 21.488 36.6042 22.424L32.4442 18.16C33.9002 16.808 35.5989 15.8027 37.5402 15.144C39.4816 14.4507 41.4922 14.104 43.5722 14.104C45.8602 14.104 47.7322 14.3987 49.1882 14.988C50.6789 15.5427 51.8576 16.3747 52.7242 17.484C53.6256 18.5933 54.2496 19.9627 54.5962 21.592C54.9429 23.1867 55.1162 25.0413 55.1162 27.156V40H47.9402V36.828ZM46.0162 28.924C45.4269 28.924 44.6816 28.9587 43.7802 29.028C42.9136 29.0627 42.0642 29.2013 41.2322 29.444C40.4349 29.6867 39.7416 30.0507 39.1522 30.536C38.5976 31.0213 38.3202 31.6973 38.3202 32.564C38.3202 33.5 38.7189 34.1933 39.5162 34.644C40.3136 35.0947 41.1456 35.32 42.0122 35.32C42.7749 35.32 43.5029 35.216 44.1962 35.008C44.9242 34.8 45.5656 34.5053 46.1202 34.124C46.6749 33.7427 47.1082 33.2573 47.4202 32.668C47.7669 32.0787 47.9402 31.3853 47.9402 30.588V28.924H46.0162ZM62.7139 20.968H57.5659V14.728H62.7139V10.256C62.7139 8.86933 62.8352 7.56933 63.0779 6.356C63.3206 5.108 63.7886 4.016 64.4819 3.08C65.1752 2.144 66.1632 1.416 67.4459 0.895998C68.7632 0.341333 70.4792 0.0639997 72.5939 0.0639997C73.3912 0.0639997 74.1712 0.0986659 74.9339 0.167998C75.6966 0.237331 76.4419 0.358664 77.1699 0.531997L76.8059 7.136C76.3552 6.96267 75.9392 6.84133 75.5579 6.772C75.1766 6.668 74.7432 6.616 74.2579 6.616C73.0099 6.616 72.0739 6.89333 71.4499 7.448C70.8259 7.968 70.5139 9.06 70.5139 10.724V14.728H76.2859V20.968H70.5139V40H62.7139V20.968ZM103.176 35.632C101.928 37.2267 100.351 38.4573 98.444 39.324C96.5373 40.1907 94.5613 40.624 92.516 40.624C90.5747 40.624 88.7373 40.312 87.004 39.688C85.3053 39.064 83.8147 38.18 82.532 37.036C81.284 35.8573 80.296 34.4533 79.568 32.824C78.84 31.1947 78.476 29.3747 78.476 27.364C78.476 25.3533 78.84 23.5333 79.568 21.904C80.296 20.2747 81.284 18.888 82.532 17.744C83.8147 16.5653 85.3053 15.664 87.004 15.04C88.7373 14.416 90.5747 14.104 92.516 14.104C94.3187 14.104 95.948 14.416 97.404 15.04C98.8947 15.664 100.143 16.5653 101.148 17.744C102.188 18.888 102.985 20.2747 103.54 21.904C104.095 23.5333 104.372 25.3533 104.372 27.364V29.808H86.276C86.588 31.2987 87.264 32.4947 88.304 33.396C89.344 34.2627 90.6267 34.696 92.152 34.696C93.4347 34.696 94.5093 34.4187 95.376 33.864C96.2773 33.2747 97.0573 32.5293 97.716 31.628L103.176 35.632ZM96.572 24.504C96.6067 23.1867 96.1733 22.06 95.272 21.124C94.3707 20.188 93.2093 19.72 91.788 19.72C90.9213 19.72 90.1587 19.8587 89.5 20.136C88.8413 20.4133 88.2693 20.7773 87.784 21.228C87.3333 21.644 86.9693 22.1467 86.692 22.736C86.4493 23.2907 86.3107 23.88 86.276 24.504H96.572ZM109.115 14.728H116.915V18.784H117.019C117.851 17.224 118.839 16.0627 119.983 15.3C121.127 14.5027 122.566 14.104 124.299 14.104C124.75 14.104 125.201 14.1213 125.651 14.156C126.102 14.1907 126.518 14.26 126.899 14.364V21.488C126.345 21.3147 125.79 21.1933 125.235 21.124C124.715 21.02 124.161 20.968 123.571 20.968C122.081 20.968 120.902 21.176 120.035 21.592C119.169 22.008 118.493 22.5973 118.007 23.36C117.557 24.088 117.262 24.972 117.123 26.012C116.985 27.052 116.915 28.196 116.915 29.444V40H109.115V14.728Z" fill="url(#paint0_linear)"/>
<defs>
<linearGradient id="paint0_linear" x1="-0.999999" y1="8.5" x2="141" y2="11" gradientUnits="userSpaceOnUse">
<stop stop-color="#5CCAFB"/>
<stop offset="0.708333" stop-color="#B4F2E5"/>
</linearGradient>
</defs>
</svg>
