<svg width="161" height="160" viewBox="0 0 161 160" fill="none" xmlns="http://www.w3.org/2000/svg">
<circle cx="80.5137" cy="80.123" r="79.7705" fill="#17093F" fill-opacity="0.8"/>
<path fill-rule="evenodd" clip-rule="evenodd" d="M99.9154 72.2751C99.9154 77.0932 98.0014 81.7139 94.5945 85.1208C91.1876 88.5277 86.5668 90.4417 81.7487 90.4417C76.9306 90.4417 72.3098 88.5277 68.9029 85.1208C65.496 81.7139 63.582 77.0932 63.582 72.2751C63.582 67.457 65.496 62.8362 68.9029 59.4293C72.3098 56.0224 76.9306 54.1084 81.7487 54.1084C86.5668 54.1084 91.1876 56.0224 94.5945 59.4293C98.0014 62.8362 99.9154 67.457 99.9154 72.2751ZM90.832 72.2751C90.832 74.6841 89.875 76.9945 88.1716 78.698C86.4681 80.4014 84.1577 81.3584 81.7487 81.3584C79.3396 81.3584 77.0293 80.4014 75.3258 78.698C73.6224 76.9945 72.6654 74.6841 72.6654 72.2751C72.6654 69.866 73.6224 67.5556 75.3258 65.8522C77.0293 64.1487 79.3396 63.1917 81.7487 63.1917C84.1577 63.1917 86.4681 64.1487 88.1716 65.8522C89.875 67.5556 90.832 69.866 90.832 72.2751Z" fill="#E5F5F9"/>
<path fill-rule="evenodd" clip-rule="evenodd" d="M52.3281 100.643C46.4732 95.0685 42.4028 87.8829 40.6317 79.9949C38.8605 72.107 39.4683 63.871 42.378 56.3284C45.2877 48.7859 50.3686 42.2755 56.9784 37.6206C63.5881 32.9658 71.4298 30.3755 79.5117 30.1773C87.5936 29.9792 95.5528 32.182 102.383 36.5073C109.213 40.8326 114.607 47.0861 117.883 54.477C121.158 61.8679 122.169 70.0642 120.787 78.0295C119.404 85.9947 115.691 93.3712 110.116 99.2261L81.9307 128.829L52.3281 100.643ZM103.54 92.9631L81.6173 115.989L58.5911 94.0667C54.0374 89.7309 50.8718 84.1422 49.4943 78.0073C48.1169 71.8723 48.5896 65.4667 50.8526 59.6004C53.1156 53.7341 57.0673 48.6706 62.2081 45.0502C67.3488 41.4297 73.4476 39.4149 79.7334 39.2606C86.0192 39.1063 92.2096 40.8193 97.5218 44.1831C102.834 47.5469 107.029 52.4104 109.578 58.1586C112.126 63.9067 112.912 70.2814 111.838 76.4766C110.763 82.6717 107.875 88.4091 103.54 92.9631Z" fill="#E5F5F9"/>
</svg>
