<svg width="123" height="32" viewBox="0 0 123 32" fill="none" xmlns="http://www.w3.org/2000/svg">
<path d="M49.596 25.1422C48.4772 25.1422 47.3678 24.9526 46.268 24.5733C45.1681 24.1941 44.2769 23.6252 43.5942 22.8667C43.3856 22.6391 43.3003 22.3831 43.3382 22.0987C43.3761 21.8142 43.5183 21.5677 43.7649 21.3591C44.0303 21.1695 44.3053 21.0936 44.5897 21.1316C44.8742 21.1695 45.1112 21.2927 45.3009 21.5013C45.756 22.0323 46.3533 22.44 47.0929 22.7244C47.8514 23.0089 48.6857 23.1511 49.596 23.1511C50.9992 23.1511 52.0137 22.9141 52.6395 22.44C53.2653 21.947 53.5877 21.3591 53.6066 20.6764C53.6066 19.9938 53.2843 19.4344 52.6395 18.9982C51.9948 18.5431 50.9329 18.1923 49.4537 17.9458C47.5385 17.6424 46.1352 17.1114 45.244 16.3529C44.3527 15.5944 43.9071 14.6936 43.9071 13.6507C43.9071 12.6836 44.1631 11.8776 44.6751 11.2329C45.1871 10.5881 45.8697 10.1046 46.7231 9.78222C47.5764 9.45985 48.5151 9.29866 49.5391 9.29866C50.8096 9.29866 51.9 9.51674 52.8102 9.95289C53.7394 10.389 54.4884 10.9769 55.0573 11.7164C55.2469 11.963 55.3228 12.219 55.2849 12.4844C55.2469 12.7499 55.0952 12.968 54.8297 13.1387C54.6022 13.2714 54.3367 13.3188 54.0333 13.2809C53.7489 13.224 53.5023 13.0818 53.2937 12.8542C52.3646 11.7923 51.094 11.2613 49.4822 11.2613C48.4392 11.2613 47.6049 11.4794 46.9791 11.9156C46.3533 12.3327 46.0404 12.8637 46.0404 13.5084C46.0404 14.1532 46.3154 14.6841 46.8653 15.1013C47.4342 15.5185 48.4961 15.8599 50.0511 16.1253C51.4733 16.3529 52.5921 16.6942 53.4075 17.1493C54.2419 17.5855 54.8297 18.107 55.1711 18.7138C55.5314 19.3016 55.7115 19.9464 55.7115 20.648C55.7115 21.5393 55.446 22.3262 54.9151 23.0089C54.4031 23.6726 53.6825 24.1941 52.7533 24.5733C51.8431 24.9526 50.7906 25.1422 49.596 25.1422ZM65.9249 25.1422C64.4647 25.1422 63.1563 24.8009 61.9995 24.1182C60.8428 23.4166 59.9231 22.4684 59.2404 21.2738C58.5767 20.0791 58.2449 18.7327 58.2449 17.2347C58.2449 15.7176 58.5862 14.3618 59.2689 13.1671C59.9705 11.9724 60.9186 11.0338 62.1133 10.3511C63.308 9.64948 64.6543 9.29866 66.1524 9.29866C67.6505 9.29866 68.9874 9.64948 70.1631 10.3511C71.3577 11.0338 72.2964 11.9724 72.9791 13.1671C73.6807 14.3618 74.041 15.7176 74.06 17.2347V23.9191C74.06 24.2415 73.9557 24.507 73.7471 24.7156C73.5385 24.9052 73.273 25 72.9506 25C72.6283 25 72.3628 24.9052 72.1542 24.7156C71.9456 24.507 71.8413 24.2415 71.8413 23.9191V22.184C71.1966 23.0942 70.3622 23.8148 69.3382 24.3458C68.3142 24.8767 67.1764 25.1422 65.9249 25.1422ZM66.1524 23.1511C67.2523 23.1511 68.2289 22.8951 69.0822 22.3831C69.9545 21.8711 70.6372 21.1695 71.1302 20.2782C71.6422 19.368 71.8982 18.3535 71.8982 17.2347C71.8982 16.0969 71.6422 15.0824 71.1302 14.1911C70.6372 13.2999 69.9545 12.5982 69.0822 12.0862C68.2289 11.5553 67.2523 11.2898 66.1524 11.2898C65.0715 11.2898 64.0949 11.5553 63.2226 12.0862C62.3503 12.5982 61.6582 13.2999 61.1462 14.1911C60.6342 15.0824 60.3782 16.0969 60.3782 17.2347C60.3782 18.3535 60.6342 19.368 61.1462 20.2782C61.6582 21.1695 62.3503 21.8711 63.2226 22.3831C64.0949 22.8951 65.0715 23.1511 66.1524 23.1511ZM79.8273 25C79.5429 25 79.2963 24.9052 79.0877 24.7156C78.8792 24.507 78.7749 24.232 78.7749 23.8907V11.9156H76.9544C76.651 11.9156 76.4045 11.8302 76.2149 11.6596C76.0442 11.4699 75.9589 11.2424 75.9589 10.9769C75.9589 10.6924 76.0442 10.4649 76.2149 10.2942C76.4045 10.1046 76.651 10.0098 76.9544 10.0098H78.7749V9.46933C78.7749 7.47822 79.2869 5.86637 80.3109 4.63378C81.3349 3.40118 82.814 2.78489 84.7482 2.78489C85.0706 2.78489 85.336 2.8797 85.5446 3.06933C85.7532 3.25896 85.8575 3.496 85.8575 3.78044C85.8575 4.06489 85.7532 4.30192 85.5446 4.49155C85.336 4.68118 85.0706 4.776 84.7482 4.776C83.4587 4.776 82.5011 5.21215 81.8753 6.08444C81.2685 6.93778 80.9651 8.02815 80.9651 9.35555V10.0098H84.3784C84.6818 10.0098 84.9189 10.1046 85.0895 10.2942C85.2792 10.4649 85.374 10.6924 85.374 10.9769C85.374 11.2424 85.2792 11.4699 85.0895 11.6596C84.9189 11.8302 84.6818 11.9156 84.3784 11.9156H80.9651V23.8907C80.9651 24.232 80.8608 24.507 80.6522 24.7156C80.4626 24.9052 80.1876 25 79.8273 25ZM94.3817 25.1422C92.8457 25.1422 91.4804 24.8104 90.2857 24.1467C89.11 23.464 88.1809 22.5253 87.4982 21.3307C86.8345 20.136 86.5026 18.7707 86.5026 17.2347C86.5026 15.6797 86.8155 14.3144 87.4413 13.1387C88.086 11.944 88.9678 11.0053 90.0866 10.3227C91.2055 9.64 92.4949 9.29866 93.9551 9.29866C95.3963 9.29866 96.6478 9.63052 97.7097 10.2942C98.7906 10.939 99.625 11.8397 100.213 12.9964C100.801 14.1532 101.095 15.4711 101.095 16.9502C101.095 17.2536 101 17.5001 100.81 17.6898C100.621 17.8604 100.374 17.9458 100.071 17.9458H88.5791C88.6929 18.9698 89.0057 19.88 89.5177 20.6764C90.0297 21.4539 90.7029 22.0702 91.5373 22.5253C92.3717 22.9615 93.3198 23.1796 94.3817 23.1796C95.0644 23.1796 95.7471 23.0658 96.4297 22.8382C97.1314 22.5917 97.6908 22.2883 98.108 21.928C98.3166 21.7573 98.5536 21.672 98.8191 21.672C99.0846 21.653 99.3121 21.7194 99.5017 21.8711C99.7483 22.0987 99.8715 22.3452 99.8715 22.6107C99.8905 22.8761 99.7862 23.1037 99.5586 23.2933C98.9329 23.8243 98.1364 24.2699 97.1693 24.6302C96.2022 24.9716 95.273 25.1422 94.3817 25.1422ZM93.9551 11.2613C92.4949 11.2613 91.2908 11.7164 90.3426 12.6267C89.3945 13.5179 88.8256 14.6841 88.636 16.1253H99.0466C98.8949 14.6841 98.364 13.5179 97.4537 12.6267C96.5625 11.7164 95.3963 11.2613 93.9551 11.2613ZM105.454 25C104.733 25 104.373 24.6397 104.373 23.9191V10.5218C104.373 9.80118 104.733 9.44089 105.454 9.44089C106.175 9.44089 106.535 9.80118 106.535 10.5218V11.7449C107.104 10.9864 107.805 10.389 108.64 9.95289C109.474 9.49778 110.394 9.27022 111.399 9.27022C112.271 9.27022 112.944 9.39348 113.418 9.64C113.892 9.88652 114.073 10.2468 113.959 10.7209C113.864 11.157 113.636 11.3846 113.276 11.4036C112.935 11.4036 112.527 11.3846 112.053 11.3467C110.991 11.2519 110.043 11.3656 109.209 11.688C108.393 11.9914 107.739 12.4655 107.246 13.1102C106.772 13.755 106.535 14.523 106.535 15.4142V23.9191C106.535 24.6397 106.175 25 105.454 25Z" fill="white"/>
<path fill-rule="evenodd" clip-rule="evenodd" d="M15.8464 2.96289H8.58307e-06L6.67216 9.63504H22.5185L15.8464 2.96289ZM6.67215 9.63505V25.4814L0 18.8093V2.96289L6.67215 9.63505Z" fill="#CCCCCC"/>
<path fill-rule="evenodd" clip-rule="evenodd" d="M6.67218 25.4814L22.5185 25.4814L15.8464 18.8093L2.28882e-05 18.8093L6.67218 25.4814ZM15.8464 18.8093L15.8464 2.96292L22.5186 9.63508L22.5186 25.4814L15.8464 18.8093Z" fill="white"/>
</svg>
